<svg xmlns="http://www.w3.org/2000/svg" xmlns:xlink="http://www.w3.org/1999/xlink" contentstyletype="text/css" data-diagram-type="ACTIVITY" height="866px" preserveAspectRatio="none" style="width: 2375px; height: 866px; background: rgb(255, 255, 255); max-width: none; display: block;" version="1.1" viewBox="0 0 2375 866" width="2375px" zoomAndPan="magnify"><defs/><g><ellipse cx="1169.3994" cy="20" fill="#222222" rx="10" ry="10" style="stroke:#222222;stroke-width:1;"/><rect fill="#F1F1F1" height="33.9688" rx="12.5" ry="12.5" style="stroke:#181818;stroke-width:0.5;" width="67.2324" x="1135.7832" y="50"/><text fill="#000000" font-family="sans-serif" font-size="12" lengthAdjust="spacing" textLength="47.2324" x="1145.7832" y="71.1387">启动程序</text><rect fill="#F1F1F1" height="33.9688" rx="12.5" ry="12.5" style="stroke:#181818;stroke-width:0.5;" width="106.5781" x="1116.1104" y="103.9688"/><text fill="#000000" font-family="sans-serif" font-size="12" lengthAdjust="spacing" textLength="86.5781" x="1126.1104" y="125.1074">执行main()函数</text><rect fill="#F1F1F1" height="47.9375" rx="12.5" ry="12.5" style="stroke:#181818;stroke-width:0.5;" width="134.5097" x="1102.1446" y="157.9375"/><text fill="#000000" font-family="sans-serif" font-size="12" lengthAdjust="spacing" textLength="114.5097" x="1112.1446" y="179.0762">创建schemaObj对象</text><text fill="#000000" font-family="sans-serif" font-size="12" lengthAdjust="spacing" textLength="106.6947" x="1112.1446" y="193.0449">(加载all.sch表结构)</text><rect fill="#F1F1F1" height="33.9688" rx="12.5" ry="12.5" style="stroke:#181818;stroke-width:0.5;" width="165.1336" x="1086.8326" y="225.875"/><text fill="#000000" font-family="sans-serif" font-size="12" lengthAdjust="spacing" textLength="145.1336" x="1096.8326" y="247.0137">显示主菜单(7个选项+退出)</text><polygon fill="#F1F1F1" points="1147.7516,333.8125,1191.0472,333.8125,1203.0472,345.8125,1191.0472,357.8125,1147.7516,357.8125,1135.7516,345.8125,1147.7516,333.8125" style="stroke:#181818;stroke-width:0.5;"/><text fill="#000000" font-family="sans-serif" font-size="11" lengthAdjust="spacing" textLength="43.2957" x="1147.7516" y="349.6206">指令选择</text><rect fill="#F1F1F1" height="33.9688" rx="12.5" ry="12.5" style="stroke:#181818;stroke-width:0.5;" width="67.2324" x="249.7886" y="393.4219"/><text fill="#000000" font-family="sans-serif" font-size="12" lengthAdjust="spacing" textLength="47.2324" x="259.7886" y="414.5605">输入表名</text><polygon fill="#F1F1F1" points="261.757,447.3906,305.0526,447.3906,317.0526,459.3906,305.0526,471.3906,261.757,471.3906,249.757,459.3906,261.757,447.3906" style="stroke:#181818;stroke-width:0.5;"/><text fill="#000000" font-family="sans-serif" font-size="11" lengthAdjust="spacing" textLength="43.2957" x="261.757" y="463.1987">表不存在</text><text fill="#000000" font-family="sans-serif" font-size="11" lengthAdjust="spacing" textLength="10.8239" x="238.9331" y="456.7964">是</text><text fill="#000000" font-family="sans-serif" font-size="11" lengthAdjust="spacing" textLength="10.8239" x="317.0526" y="456.7964">否</text><rect fill="#F1F1F1" height="33.9688" rx="12.5" ry="12.5" style="stroke:#181818;stroke-width:0.5;" width="134.58" x="76.2785" y="481.3906"/><text fill="#000000" font-family="sans-serif" font-size="12" lengthAdjust="spacing" textLength="114.58" x="86.2785" y="502.5293">创建StorageObj对象</text><rect fill="#F1F1F1" height="33.9688" rx="12.5" ry="12.5" style="stroke:#181818;stroke-width:0.5;" width="90.8485" x="98.1443" y="550.3594"/><text fill="#000000" font-family="sans-serif" font-size="12" lengthAdjust="spacing" textLength="70.8485" x="108.1443" y="571.498">获取字段列表</text><rect fill="#F1F1F1" height="33.9688" rx="12.5" ry="12.5" style="stroke:#181818;stroke-width:0.5;" width="265.1371" x="11" y="619.3281"/><text fill="#000000" font-family="sans-serif" font-size="12" lengthAdjust="spacing" textLength="245.1371" x="21" y="640.4668">调用schemaObj.appendTable() 写入表结构</text><rect fill="#F1F1F1" height="33.9688" rx="12.5" ry="12.5" style="stroke:#181818;stroke-width:0.5;" width="67.2324" x="389.6249" y="481.3906"/><text fill="#000000" font-family="sans-serif" font-size="12" lengthAdjust="spacing" textLength="47.2324" x="399.6249" y="502.5293">输入数据</text><rect fill="#F1F1F1" height="33.9688" rx="12.5" ry="12.5" style="stroke:#181818;stroke-width:0.5;" width="254.2079" x="296.1371" y="550.3594"/><text fill="#000000" font-family="sans-serif" font-size="12" lengthAdjust="spacing" textLength="234.2079" x="306.1371" y="571.498">调用StorageObj.insert_record() 插入数据</text><polygon fill="#F1F1F1" points="283.4048,659.2969,295.4048,671.2969,283.4048,683.2969,271.4048,671.2969,283.4048,659.2969" style="stroke:#181818;stroke-width:0.5;"/><rect fill="#F1F1F1" height="33.9688" rx="12.5" ry="12.5" style="stroke:#181818;stroke-width:0.5;" width="67.2324" x="786.0881" y="393.4219"/><text fill="#000000" font-family="sans-serif" font-size="12" lengthAdjust="spacing" textLength="47.2324" x="796.0881" y="414.5605">输入表名</text><polygon fill="#F1F1F1" points="803.4685,447.3906,835.9402,447.3906,847.9402,459.3906,835.9402,471.3906,803.4685,471.3906,791.4685,459.3906,803.4685,447.3906" style="stroke:#181818;stroke-width:0.5;"/><text fill="#000000" font-family="sans-serif" font-size="11" lengthAdjust="spacing" textLength="32.4717" x="803.4685" y="463.1987">表存在</text><text fill="#000000" font-family="sans-serif" font-size="11" lengthAdjust="spacing" textLength="10.8239" x="780.6445" y="456.7964">是</text><text fill="#000000" font-family="sans-serif" font-size="11" lengthAdjust="spacing" textLength="10.8239" x="847.9402" y="456.7964">否</text><rect fill="#F1F1F1" height="33.9688" rx="12.5" ry="12.5" style="stroke:#181818;stroke-width:0.5;" width="302.1962" x="560.345" y="481.3906"/><text fill="#000000" font-family="sans-serif" font-size="12" lengthAdjust="spacing" textLength="282.1962" x="570.345" y="502.5293">调用schemaObj.delete_table_schema() 删除结构</text><rect fill="#F1F1F1" height="33.9688" rx="12.5" ry="12.5" style="stroke:#181818;stroke-width:0.5;" width="282.4149" x="570.2357" y="550.3594"/><text fill="#000000" font-family="sans-serif" font-size="12" lengthAdjust="spacing" textLength="262.4149" x="580.2357" y="571.498">调用StorageObj.delete_table_data() 删除数据</text><rect fill="#F1F1F1" height="33.9688" rx="12.5" ry="12.5" style="stroke:#181818;stroke-width:0.5;" width="90.8485" x="882.5412" y="481.3906"/><text fill="#000000" font-family="sans-serif" font-size="12" lengthAdjust="spacing" textLength="70.8485" x="892.5412" y="502.5293">提示表不存在</text><polygon fill="#F1F1F1" points="819.7043,590.3281,831.7043,602.3281,819.7043,614.3281,807.7043,602.3281,819.7043,590.3281" style="stroke:#181818;stroke-width:0.5;"/><rect fill="#F1F1F1" height="33.9688" rx="12.5" ry="12.5" style="stroke:#181818;stroke-width:0.5;" width="67.2324" x="1201.3766" y="393.4219"/><text fill="#000000" font-family="sans-serif" font-size="12" lengthAdjust="spacing" textLength="47.2324" x="1211.3766" y="414.5605">输入表名</text><polygon fill="#F1F1F1" points="1218.7569,447.3906,1251.2286,447.3906,1263.2286,459.3906,1251.2286,471.3906,1218.7569,471.3906,1206.7569,459.3906,1218.7569,447.3906" style="stroke:#181818;stroke-width:0.5;"/><text fill="#000000" font-family="sans-serif" font-size="11" lengthAdjust="spacing" textLength="32.4717" x="1218.7569" y="463.1987">表存在</text><text fill="#000000" font-family="sans-serif" font-size="11" lengthAdjust="spacing" textLength="10.8239" x="1195.933" y="456.7964">是</text><text fill="#000000" font-family="sans-serif" font-size="11" lengthAdjust="spacing" textLength="10.8239" x="1263.2286" y="456.7964">否</text><rect fill="#F1F1F1" height="33.9688" rx="12.5" ry="12.5" style="stroke:#181818;stroke-width:0.5;" width="291.8544" x="983.3898" y="481.3906"/><text fill="#000000" font-family="sans-serif" font-size="12" lengthAdjust="spacing" textLength="271.8544" x="993.3898" y="502.5293">调用schemaObj.viewTableStructure() 显示结构</text><rect fill="#F1F1F1" height="33.9688" rx="12.5" ry="12.5" style="stroke:#181818;stroke-width:0.5;" width="275.6239" x="991.505" y="550.3594"/><text fill="#000000" font-family="sans-serif" font-size="12" lengthAdjust="spacing" textLength="255.6239" x="1001.505" y="571.498">调用StorageObj.show_table_data() 显示数据</text><rect fill="#F1F1F1" height="33.9688" rx="12.5" ry="12.5" style="stroke:#181818;stroke-width:0.5;" width="90.8485" x="1295.2442" y="481.3906"/><text fill="#000000" font-family="sans-serif" font-size="12" lengthAdjust="spacing" textLength="70.8485" x="1305.2442" y="502.5293">提示表不存在</text><polygon fill="#F1F1F1" points="1234.9927,590.3281,1246.9927,602.3281,1234.9927,614.3281,1222.9927,602.3281,1234.9927,590.3281" style="stroke:#181818;stroke-width:0.5;"/><rect fill="#F1F1F1" height="33.9688" rx="12.5" ry="12.5" style="stroke:#181818;stroke-width:0.5;" width="90.8485" x="1491.876" y="393.4219"/><text fill="#000000" font-family="sans-serif" font-size="12" lengthAdjust="spacing" textLength="70.8485" x="1501.876" y="414.5605">遍历所有表名</text><rect fill="#F1F1F1" height="33.9688" rx="12.5" ry="12.5" style="stroke:#181818;stroke-width:0.5;" width="282.4149" x="1396.0928" y="447.3906"/><text fill="#000000" font-family="sans-serif" font-size="12" lengthAdjust="spacing" textLength="262.4149" x="1406.0928" y="468.5293">调用StorageObj.delete_table_data() 清空数据</text><rect fill="#F1F1F1" height="33.9688" rx="12.5" ry="12.5" style="stroke:#181818;stroke-width:0.5;" width="239.6078" x="1417.4963" y="516.3594"/><text fill="#000000" font-family="sans-serif" font-size="12" lengthAdjust="spacing" textLength="219.6078" x="1427.4963" y="537.498">调用schemaObj.deleteAll() 清空表结构</text><rect fill="#F1F1F1" height="33.9688" rx="12.5" ry="12.5" style="stroke:#181818;stroke-width:0.5;" width="90.9804" x="1706.1539" y="393.4219"/><text fill="#000000" font-family="sans-serif" font-size="12" lengthAdjust="spacing" textLength="70.9804" x="1716.1539" y="414.5605">输入SQL语句</text><rect fill="#F1F1F1" height="33.9688" rx="12.5" ry="12.5" style="stroke:#181818;stroke-width:0.5;" width="94.8915" x="1704.1984" y="447.3906"/><text fill="#000000" font-family="sans-serif" font-size="12" lengthAdjust="spacing" textLength="74.8915" x="1714.1984" y="468.5293">词法/语法解析</text><rect fill="#F1F1F1" height="33.9688" rx="12.5" ry="12.5" style="stroke:#181818;stroke-width:0.5;" width="90.8485" x="1706.2198" y="516.3594"/><text fill="#000000" font-family="sans-serif" font-size="12" lengthAdjust="spacing" textLength="70.8485" x="1716.2198" y="537.498">生成执行计划</text><rect fill="#F1F1F1" height="33.9688" rx="12.5" ry="12.5" style="stroke:#181818;stroke-width:0.5;" width="126.2728" x="1688.5077" y="585.3281"/><text fill="#000000" font-family="sans-serif" font-size="12" lengthAdjust="spacing" textLength="106.2728" x="1698.5077" y="606.4668">执行查询并输出结果</text><rect fill="#F1F1F1" height="33.9688" rx="12.5" ry="12.5" style="stroke:#181818;stroke-width:0.5;" width="100.9032" x="1899.6532" y="393.4219"/><text fill="#000000" font-family="sans-serif" font-size="12" lengthAdjust="spacing" textLength="80.9032" x="1909.6532" y="414.5605">输入表名+条件</text><rect fill="#F1F1F1" height="33.9688" rx="12.5" ry="12.5" style="stroke:#181818;stroke-width:0.5;" width="161.6971" x="1869.2563" y="447.3906"/><text fill="#000000" font-family="sans-serif" font-size="12" lengthAdjust="spacing" textLength="141.6971" x="1879.2563" y="468.5293">根据字段关键字删除数据行</text><rect fill="#F1F1F1" height="33.9688" rx="12.5" ry="12.5" style="stroke:#181818;stroke-width:0.5;" width="146.3822" x="2040.9534" y="393.4219"/><text fill="#000000" font-family="sans-serif" font-size="12" lengthAdjust="spacing" textLength="126.3822" x="2050.9534" y="414.5605">输入表名+字段+新旧值</text><rect fill="#F1F1F1" height="33.9688" rx="12.5" ry="12.5" style="stroke:#181818;stroke-width:0.5;" width="138.0809" x="2045.104" y="447.3906"/><text fill="#000000" font-family="sans-serif" font-size="12" lengthAdjust="spacing" textLength="118.0809" x="2055.104" y="468.5293">根据关键字更新数据行</text><rect fill="#F1F1F1" height="33.9688" rx="12.5" ry="12.5" style="stroke:#181818;stroke-width:0.5;" width="134.5097" x="2203.2891" y="393.4219"/><text fill="#000000" font-family="sans-serif" font-size="12" lengthAdjust="spacing" textLength="114.5097" x="2213.2891" y="414.5605">销毁schemaObj对象</text><rect fill="#F1F1F1" height="33.9688" rx="12.5" ry="12.5" style="stroke:#181818;stroke-width:0.5;" width="67.2324" x="2236.9278" y="447.3906"/><text fill="#000000" font-family="sans-serif" font-size="12" lengthAdjust="spacing" textLength="47.2324" x="2246.9278" y="468.5293">关闭文件</text><polygon fill="#F1F1F1" points="1169.3994,693.2969,1169.3994,693.2969,1181.3994,705.2969,1169.3994,717.2969,1169.3994,717.2969,1157.3994,705.2969,1169.3994,693.2969" style="stroke:#181818;stroke-width:0.5;"/><rect fill="#F1F1F1" height="33.9688" rx="12.5" ry="12.5" style="stroke:#181818;stroke-width:0.5;" width="90.8485" x="1123.9751" y="279.8438"/><text fill="#000000" font-family="sans-serif" font-size="12" lengthAdjust="spacing" textLength="70.8485" x="1133.9751" y="300.9824">用户输入指令</text><polygon fill="#F1F1F1" points="1147.7516,737.2969,1191.0472,737.2969,1203.0472,749.2969,1191.0472,761.2969,1147.7516,761.2969,1135.7516,749.2969,1147.7516,737.2969" style="stroke:#181818;stroke-width:0.5;"/><text fill="#000000" font-family="sans-serif" font-size="11" lengthAdjust="spacing" textLength="43.2957" x="1147.7516" y="753.105">持续操作</text><rect fill="#F1F1F1" height="33.9688" rx="12.5" ry="12.5" style="stroke:#181818;stroke-width:0.5;" width="67.2324" x="1135.7832" y="781.2969"/><text fill="#000000" font-family="sans-serif" font-size="12" lengthAdjust="spacing" textLength="47.2324" x="1145.7832" y="802.4355">程序结束</text><ellipse cx="1169.3994" cy="845.2656" fill="none" rx="10" ry="10" style="stroke:#222222;stroke-width:1.5;"/><line style="stroke:#222222;stroke-width:2.5;" x1="1163.2122" x2="1175.5866" y1="839.0784" y2="851.4528"/><line style="stroke:#222222;stroke-width:2.5;" x1="1175.5866" x2="1163.2122" y1="839.0784" y2="851.4528"/><line style="stroke:#181818;stroke-width:1;" x1="1169.3994" x2="1169.3994" y1="30" y2="50"/><polygon fill="#181818" points="1165.3994,40,1169.3994,50,1173.3994,40,1169.3994,44" style="stroke:#181818;stroke-width:1;"/><line style="stroke:#181818;stroke-width:1;" x1="1169.3994" x2="1169.3994" y1="83.9688" y2="103.9688"/><polygon fill="#181818" points="1165.3994,93.9688,1169.3994,103.9688,1173.3994,93.9688,1169.3994,97.9688" style="stroke:#181818;stroke-width:1;"/><line style="stroke:#181818;stroke-width:1;" x1="1169.3994" x2="1169.3994" y1="137.9375" y2="157.9375"/><polygon fill="#181818" points="1165.3994,147.9375,1169.3994,157.9375,1173.3994,147.9375,1169.3994,151.9375" style="stroke:#181818;stroke-width:1;"/><line style="stroke:#181818;stroke-width:1;" x1="1169.3994" x2="1169.3994" y1="205.875" y2="225.875"/><polygon fill="#181818" points="1165.3994,215.875,1169.3994,225.875,1173.3994,215.875,1169.3994,219.875" style="stroke:#181818;stroke-width:1;"/><line style="stroke:#181818;stroke-width:1;" x1="143.5686" x2="143.5686" y1="515.3594" y2="550.3594"/><polygon fill="#181818" points="139.5686,540.3594,143.5686,550.3594,147.5686,540.3594,143.5686,544.3594" style="stroke:#181818;stroke-width:1;"/><line style="stroke:#181818;stroke-width:1;" x1="143.5686" x2="143.5686" y1="584.3281" y2="619.3281"/><polygon fill="#181818" points="139.5686,609.3281,143.5686,619.3281,147.5686,609.3281,143.5686,613.3281" style="stroke:#181818;stroke-width:1;"/><line style="stroke:#181818;stroke-width:1;" x1="423.2411" x2="423.2411" y1="515.3594" y2="550.3594"/><polygon fill="#181818" points="419.2411,540.3594,423.2411,550.3594,427.2411,540.3594,423.2411,544.3594" style="stroke:#181818;stroke-width:1;"/><line style="stroke:#181818;stroke-width:1;" x1="249.757" x2="143.5686" y1="459.3906" y2="459.3906"/><line style="stroke:#181818;stroke-width:1;" x1="143.5686" x2="143.5686" y1="459.3906" y2="481.3906"/><polygon fill="#181818" points="139.5686,471.3906,143.5686,481.3906,147.5686,471.3906,143.5686,475.3906" style="stroke:#181818;stroke-width:1;"/><line style="stroke:#181818;stroke-width:1;" x1="317.0526" x2="423.2411" y1="459.3906" y2="459.3906"/><line style="stroke:#181818;stroke-width:1;" x1="423.2411" x2="423.2411" y1="459.3906" y2="481.3906"/><polygon fill="#181818" points="419.2411,471.3906,423.2411,481.3906,427.2411,471.3906,423.2411,475.3906" style="stroke:#181818;stroke-width:1;"/><line style="stroke:#181818;stroke-width:1;" x1="143.5686" x2="143.5686" y1="653.2969" y2="671.2969"/><line style="stroke:#181818;stroke-width:1;" x1="143.5686" x2="271.4048" y1="671.2969" y2="671.2969"/><polygon fill="#181818" points="261.4048,667.2969,271.4048,671.2969,261.4048,675.2969,265.4048,671.2969" style="stroke:#181818;stroke-width:1;"/><line style="stroke:#181818;stroke-width:1;" x1="423.2411" x2="423.2411" y1="584.3281" y2="671.2969"/><line style="stroke:#181818;stroke-width:1;" x1="423.2411" x2="295.4048" y1="671.2969" y2="671.2969"/><polygon fill="#181818" points="305.4048,667.2969,295.4048,671.2969,305.4048,675.2969,301.4048,671.2969" style="stroke:#181818;stroke-width:1;"/><line style="stroke:#181818;stroke-width:1;" x1="283.4048" x2="283.4048" y1="427.3906" y2="447.3906"/><polygon fill="#181818" points="279.4048,437.3906,283.4048,447.3906,287.4048,437.3906,283.4048,441.3906" style="stroke:#181818;stroke-width:1;"/><line style="stroke:#181818;stroke-width:1;" x1="711.4431" x2="711.4431" y1="515.3594" y2="550.3594"/><polygon fill="#181818" points="707.4431,540.3594,711.4431,550.3594,715.4431,540.3594,711.4431,544.3594" style="stroke:#181818;stroke-width:1;"/><line style="stroke:#181818;stroke-width:1;" x1="791.4685" x2="711.4431" y1="459.3906" y2="459.3906"/><line style="stroke:#181818;stroke-width:1;" x1="711.4431" x2="711.4431" y1="459.3906" y2="481.3906"/><polygon fill="#181818" points="707.4431,471.3906,711.4431,481.3906,715.4431,471.3906,711.4431,475.3906" style="stroke:#181818;stroke-width:1;"/><line style="stroke:#181818;stroke-width:1;" x1="847.9402" x2="927.9655" y1="459.3906" y2="459.3906"/><line style="stroke:#181818;stroke-width:1;" x1="927.9655" x2="927.9655" y1="459.3906" y2="481.3906"/><polygon fill="#181818" points="923.9655,471.3906,927.9655,481.3906,931.9655,471.3906,927.9655,475.3906" style="stroke:#181818;stroke-width:1;"/><line style="stroke:#181818;stroke-width:1;" x1="711.4431" x2="711.4431" y1="584.3281" y2="602.3281"/><line style="stroke:#181818;stroke-width:1;" x1="711.4431" x2="807.7043" y1="602.3281" y2="602.3281"/><polygon fill="#181818" points="797.7043,598.3281,807.7043,602.3281,797.7043,606.3281,801.7043,602.3281" style="stroke:#181818;stroke-width:1;"/><line style="stroke:#181818;stroke-width:1;" x1="927.9655" x2="927.9655" y1="515.3594" y2="602.3281"/><line style="stroke:#181818;stroke-width:1;" x1="927.9655" x2="831.7043" y1="602.3281" y2="602.3281"/><polygon fill="#181818" points="841.7043,598.3281,831.7043,602.3281,841.7043,606.3281,837.7043,602.3281" style="stroke:#181818;stroke-width:1;"/><line style="stroke:#181818;stroke-width:1;" x1="819.7043" x2="819.7043" y1="427.3906" y2="447.3906"/><polygon fill="#181818" points="815.7043,437.3906,819.7043,447.3906,823.7043,437.3906,819.7043,441.3906" style="stroke:#181818;stroke-width:1;"/><line style="stroke:#181818;stroke-width:1;" x1="1129.317" x2="1129.317" y1="515.3594" y2="550.3594"/><polygon fill="#181818" points="1125.317,540.3594,1129.317,550.3594,1133.317,540.3594,1129.317,544.3594" style="stroke:#181818;stroke-width:1;"/><line style="stroke:#181818;stroke-width:1;" x1="1206.7569" x2="1129.317" y1="459.3906" y2="459.3906"/><line style="stroke:#181818;stroke-width:1;" x1="1129.317" x2="1129.317" y1="459.3906" y2="481.3906"/><polygon fill="#181818" points="1125.317,471.3906,1129.317,481.3906,1133.317,471.3906,1129.317,475.3906" style="stroke:#181818;stroke-width:1;"/><line style="stroke:#181818;stroke-width:1;" x1="1263.2286" x2="1340.6685" y1="459.3906" y2="459.3906"/><line style="stroke:#181818;stroke-width:1;" x1="1340.6685" x2="1340.6685" y1="459.3906" y2="481.3906"/><polygon fill="#181818" points="1336.6685,471.3906,1340.6685,481.3906,1344.6685,471.3906,1340.6685,475.3906" style="stroke:#181818;stroke-width:1;"/><line style="stroke:#181818;stroke-width:1;" x1="1129.317" x2="1129.317" y1="584.3281" y2="602.3281"/><line style="stroke:#181818;stroke-width:1;" x1="1129.317" x2="1222.9927" y1="602.3281" y2="602.3281"/><polygon fill="#181818" points="1212.9927,598.3281,1222.9927,602.3281,1212.9927,606.3281,1216.9927,602.3281" style="stroke:#181818;stroke-width:1;"/><line style="stroke:#181818;stroke-width:1;" x1="1340.6685" x2="1340.6685" y1="515.3594" y2="602.3281"/><line style="stroke:#181818;stroke-width:1;" x1="1340.6685" x2="1246.9927" y1="602.3281" y2="602.3281"/><polygon fill="#181818" points="1256.9927,598.3281,1246.9927,602.3281,1256.9927,606.3281,1252.9927,602.3281" style="stroke:#181818;stroke-width:1;"/><line style="stroke:#181818;stroke-width:1;" x1="1234.9927" x2="1234.9927" y1="427.3906" y2="447.3906"/><polygon fill="#181818" points="1230.9927,437.3906,1234.9927,447.3906,1238.9927,437.3906,1234.9927,441.3906" style="stroke:#181818;stroke-width:1;"/><line style="stroke:#181818;stroke-width:1;" x1="1537.3002" x2="1537.3002" y1="427.3906" y2="447.3906"/><polygon fill="#181818" points="1533.3002,437.3906,1537.3002,447.3906,1541.3002,437.3906,1537.3002,441.3906" style="stroke:#181818;stroke-width:1;"/><line style="stroke:#181818;stroke-width:1;" x1="1537.3002" x2="1537.3002" y1="481.3594" y2="516.3594"/><polygon fill="#181818" points="1533.3002,506.3594,1537.3002,516.3594,1541.3002,506.3594,1537.3002,510.3594" style="stroke:#181818;stroke-width:1;"/><line style="stroke:#181818;stroke-width:1;" x1="1751.6441" x2="1751.6441" y1="427.3906" y2="447.3906"/><polygon fill="#181818" points="1747.6441,437.3906,1751.6441,447.3906,1755.6441,437.3906,1751.6441,441.3906" style="stroke:#181818;stroke-width:1;"/><line style="stroke:#181818;stroke-width:1;" x1="1751.6441" x2="1751.6441" y1="481.3594" y2="516.3594"/><polygon fill="#181818" points="1747.6441,506.3594,1751.6441,516.3594,1755.6441,506.3594,1751.6441,510.3594" style="stroke:#181818;stroke-width:1;"/><line style="stroke:#181818;stroke-width:1;" x1="1751.6441" x2="1751.6441" y1="550.3281" y2="585.3281"/><polygon fill="#181818" points="1747.6441,575.3281,1751.6441,585.3281,1755.6441,575.3281,1751.6441,579.3281" style="stroke:#181818;stroke-width:1;"/><line style="stroke:#181818;stroke-width:1;" x1="1950.1048" x2="1950.1048" y1="427.3906" y2="447.3906"/><polygon fill="#181818" points="1946.1048,437.3906,1950.1048,447.3906,1954.1048,437.3906,1950.1048,441.3906" style="stroke:#181818;stroke-width:1;"/><line style="stroke:#181818;stroke-width:1;" x1="2114.1445" x2="2114.1445" y1="427.3906" y2="447.3906"/><polygon fill="#181818" points="2110.1445,437.3906,2114.1445,447.3906,2118.1445,437.3906,2114.1445,441.3906" style="stroke:#181818;stroke-width:1;"/><line style="stroke:#181818;stroke-width:1;" x1="2270.544" x2="2270.544" y1="427.3906" y2="447.3906"/><polygon fill="#181818" points="2266.544,437.3906,2270.544,447.3906,2274.544,437.3906,2270.544,441.3906" style="stroke:#181818;stroke-width:1;"/><line style="stroke:#181818;stroke-width:1;" x1="2270.544" x2="2270.544" y1="481.3594" y2="516.3594"/><polygon fill="#181818" points="2266.544,506.3594,2270.544,516.3594,2274.544,506.3594,2270.544,510.3594" style="stroke:#181818;stroke-width:1;"/><line style="stroke:#181818;stroke-width:1;" x1="1135.7516" x2="283.4048" y1="345.8125" y2="345.8125"/><line style="stroke:#181818;stroke-width:1;" x1="283.4048" x2="283.4048" y1="345.8125" y2="393.4219"/><polygon fill="#181818" points="279.4048,383.4219,283.4048,393.4219,287.4048,383.4219,283.4048,387.4219" style="stroke:#181818;stroke-width:1;"/><text fill="#000000" font-family="sans-serif" font-size="11" lengthAdjust="spacing" textLength="99.1854" x="283.4048" y="373.4253">1: 新增表结构+数据</text><line style="stroke:#181818;stroke-width:1;" x1="1203.0472" x2="2270.544" y1="345.8125" y2="345.8125"/><line style="stroke:#181818;stroke-width:1;" x1="2270.544" x2="2270.544" y1="345.8125" y2="393.4219"/><polygon fill="#181818" points="2266.544,383.4219,2270.544,393.4219,2274.544,383.4219,2270.544,387.4219" style="stroke:#181818;stroke-width:1;"/><text fill="#000000" font-family="sans-serif" font-size="11" lengthAdjust="spacing" textLength="53.9949" x="2270.544" y="373.4253">.: 退出程序</text><line style="stroke:#181818;stroke-width:1;" x1="819.7043" x2="819.7043" y1="345.8125" y2="393.4219"/><polygon fill="#181818" points="815.7043,383.4219,819.7043,393.4219,823.7043,383.4219,819.7043,387.4219" style="stroke:#181818;stroke-width:1;"/><text fill="#000000" font-family="sans-serif" font-size="11" lengthAdjust="spacing" textLength="99.1854" x="819.7043" y="368.4253">2: 删除表结构+数据</text><line style="stroke:#181818;stroke-width:1;" x1="1234.9927" x2="1234.9927" y1="345.8125" y2="393.4219"/><polygon fill="#181818" points="1230.9927,383.4219,1234.9927,393.4219,1238.9927,383.4219,1234.9927,387.4219" style="stroke:#181818;stroke-width:1;"/><text fill="#000000" font-family="sans-serif" font-size="11" lengthAdjust="spacing" textLength="99.1854" x="1234.9927" y="368.4253">3: 查看表结构+数据</text><line style="stroke:#181818;stroke-width:1;" x1="1537.3002" x2="1537.3002" y1="345.8125" y2="393.4219"/><polygon fill="#181818" points="1533.3002,383.4219,1537.3002,393.4219,1541.3002,383.4219,1537.3002,387.4219" style="stroke:#181818;stroke-width:1;"/><text fill="#000000" font-family="sans-serif" font-size="11" lengthAdjust="spacing" textLength="99.1854" x="1537.3002" y="368.4253">4: 删除所有表+数据</text><line style="stroke:#181818;stroke-width:1;" x1="1751.6441" x2="1751.6441" y1="345.8125" y2="393.4219"/><polygon fill="#181818" points="1747.6441,383.4219,1751.6441,393.4219,1755.6441,383.4219,1751.6441,387.4219" style="stroke:#181818;stroke-width:1;"/><text fill="#000000" font-family="sans-serif" font-size="11" lengthAdjust="spacing" textLength="107.6122" x="1751.6441" y="368.4253">5: SQL查询(SELECT)</text><line style="stroke:#181818;stroke-width:1;" x1="1950.1048" x2="1950.1048" y1="345.8125" y2="393.4219"/><polygon fill="#181818" points="1946.1048,383.4219,1950.1048,393.4219,1954.1048,383.4219,1950.1048,387.4219" style="stroke:#181818;stroke-width:1;"/><text fill="#000000" font-family="sans-serif" font-size="11" lengthAdjust="spacing" textLength="79.1447" x="1950.1048" y="368.4253">6: 按条件删除行</text><line style="stroke:#181818;stroke-width:1;" x1="2114.1445" x2="2114.1445" y1="345.8125" y2="393.4219"/><polygon fill="#181818" points="2110.1445,383.4219,2114.1445,393.4219,2118.1445,383.4219,2114.1445,387.4219" style="stroke:#181818;stroke-width:1;"/><text fill="#000000" font-family="sans-serif" font-size="11" lengthAdjust="spacing" textLength="79.1447" x="2114.1445" y="368.4253">7: 按条件更新行</text><line style="stroke:#181818;stroke-width:1;" x1="283.4048" x2="283.4048" y1="683.2969" y2="705.2969"/><line style="stroke:#181818;stroke-width:1;" x1="283.4048" x2="1157.3994" y1="705.2969" y2="705.2969"/><polygon fill="#181818" points="1147.3994,701.2969,1157.3994,705.2969,1147.3994,709.2969,1151.3994,705.2969" style="stroke:#181818;stroke-width:1;"/><line style="stroke:#181818;stroke-width:1;" x1="2114.1445" x2="2114.1445" y1="481.3594" y2="705.2969"/><line style="stroke:#181818;stroke-width:1;" x1="2114.1445" x2="1181.3994" y1="705.2969" y2="705.2969"/><polygon fill="#181818" points="1191.3994,701.2969,1181.3994,705.2969,1191.3994,709.2969,1187.3994,705.2969" style="stroke:#181818;stroke-width:1;"/><line style="stroke:#181818;stroke-width:1;" x1="819.7043" x2="819.7043" y1="614.3281" y2="705.2969"/><polygon fill="#181818" points="815.7043,695.2969,819.7043,705.2969,823.7043,695.2969,819.7043,699.2969" style="stroke:#181818;stroke-width:1;"/><line style="stroke:#181818;stroke-width:1;" x1="1234.9927" x2="1234.9927" y1="614.3281" y2="705.2969"/><polygon fill="#181818" points="1230.9927,695.2969,1234.9927,705.2969,1238.9927,695.2969,1234.9927,699.2969" style="stroke:#181818;stroke-width:1;"/><line style="stroke:#181818;stroke-width:1;" x1="1537.3002" x2="1537.3002" y1="550.3281" y2="705.2969"/><polygon fill="#181818" points="1533.3002,695.2969,1537.3002,705.2969,1541.3002,695.2969,1537.3002,699.2969" style="stroke:#181818;stroke-width:1;"/><line style="stroke:#181818;stroke-width:1;" x1="1751.6441" x2="1751.6441" y1="619.2969" y2="705.2969"/><polygon fill="#181818" points="1747.6441,695.2969,1751.6441,705.2969,1755.6441,695.2969,1751.6441,699.2969" style="stroke:#181818;stroke-width:1;"/><line style="stroke:#181818;stroke-width:1;" x1="1950.1048" x2="1950.1048" y1="481.3594" y2="705.2969"/><polygon fill="#181818" points="1946.1048,695.2969,1950.1048,705.2969,1954.1048,695.2969,1950.1048,699.2969" style="stroke:#181818;stroke-width:1;"/><line style="stroke:#181818;stroke-width:1;" x1="1169.3994" x2="1169.3994" y1="313.8125" y2="333.8125"/><polygon fill="#181818" points="1165.3994,323.8125,1169.3994,333.8125,1173.3994,323.8125,1169.3994,327.8125" style="stroke:#181818;stroke-width:1;"/><line style="stroke:#181818;stroke-width:1;" x1="1203.0472" x2="2349.7988" y1="749.2969" y2="749.2969"/><polygon fill="#181818" points="2345.7988,575.5625,2349.7988,565.5625,2353.7988,575.5625,2349.7988,571.5625" style="stroke:#181818;stroke-width:1;"/><line style="stroke:#181818;stroke-width:1;" x1="2349.7988" x2="2349.7988" y1="296.8281" y2="749.2969"/><line style="stroke:#181818;stroke-width:1;" x1="2349.7988" x2="1214.8237" y1="296.8281" y2="296.8281"/><polygon fill="#181818" points="1224.8237,292.8281,1214.8237,296.8281,1224.8237,300.8281,1220.8237,296.8281" style="stroke:#181818;stroke-width:1;"/><line style="stroke:#181818;stroke-width:1;" x1="1169.3994" x2="1169.3994" y1="717.2969" y2="737.2969"/><polygon fill="#181818" points="1165.3994,727.2969,1169.3994,737.2969,1173.3994,727.2969,1169.3994,731.2969" style="stroke:#181818;stroke-width:1;"/><line style="stroke:#181818;stroke-width:1;" x1="1169.3994" x2="1169.3994" y1="259.8438" y2="279.8438"/><polygon fill="#181818" points="1165.3994,269.8438,1169.3994,279.8438,1173.3994,269.8438,1169.3994,273.8438" style="stroke:#181818;stroke-width:1;"/><line style="stroke:#181818;stroke-width:1;" x1="1169.3994" x2="1169.3994" y1="761.2969" y2="781.2969"/><polygon fill="#181818" points="1165.3994,771.2969,1169.3994,781.2969,1173.3994,771.2969,1169.3994,775.2969" style="stroke:#181818;stroke-width:1;"/><line style="stroke:#181818;stroke-width:1;" x1="1169.3994" x2="1169.3994" y1="815.2656" y2="835.2656"/><polygon fill="#181818" points="1165.3994,825.2656,1169.3994,835.2656,1173.3994,825.2656,1169.3994,829.2656" style="stroke:#181818;stroke-width:1;"/><!--?plantuml-src nLNVJzfG57xlNz77DYGi-sbIdfR5DvDbmNTJuJgwLJIbZbVCfe1I8OgY4GMSJbo2TN5JVWp_6ivj-IzsoXMKMjHaoTONoBtVETyvt_tkFJ5TrdHEWfm9ArMhkWhDR82JQFhOhcHcPIKgY91iqyqpN8JKBhIQiL24pCflfp-0sR1_L3W1LifskoshgX-tx4hLQctG_I-YasNxoZfiTkejEri4OrCOwzI_TnFfRgNXwoOIa6mYYDF8F95rNhBoLPgwjAysOEc8PfATrc60u_6BnHKz5E45jeRXTFL4xEquNqYE4LvuAl5qwmmEzWVqFYoP6gStGEUJM7O4GSu836qfCxo0wvsw0RLjA5P5Ne-GAB9kcyCvUdcO4a5zJfFVau4KWRj0U-qIibjGAz3JNv0g88CNwEmpDZ_GrI_FpvDeU5AULeaWyh2ymsfcZGt74zLf7tBVF8gybhAdmqZMcnxyIZH6D7rA8w4vBOp4DBi-8XwhKsPSH_1CuY5LxkuS_kqHF4P_js9XeXATJEcEP5DisL6kLu-NRDu236K9o_fD3ayHxf6UPdDe_Dj-UbZ0v-ZXqf5LNFqV0dvIIBndkA2kBOJq1Srn7hk-ZzSl5fcB3wl7ClmBzLxqxKVJ2LfCOx2tUjr50zQM1w0x6ZxE5RI-P9ruzZN2cgzLTH3cSPLP3oybFlXk0arWcmT2S7nY_Csaw7duYBBD6cIFtDocGSytd-0U_jZ7N-b-peMmyYMQoh7NtJwjG6hT1M1Rh0PeN3XyIMQ1ehlSLsZOJ9hkLJgjY_xLpznZLX-3kWdB3HJn-eLSEk_cdV-tRnqcTJEFtMAckp_nwN-0cQNt8P0MZY7nsxk6FZjBEPBTB_5iUh5fwJPOFa7DHTUGTF4vJ8KQtKhUaMDQ8_97xjhaRFBr1sGyegZ46OEBLgj6DunEkoXodCIAS4vehnJWCEeF?--></g></svg>